<svg width="32" height="32" viewBox="0 0 32 32" fill="none" xmlns="http://www.w3.org/2000/svg">
<g clip-path="url(#clip0_227_2)">
<mask id="mask0_227_2" style="mask-type:luminance" maskUnits="userSpaceOnUse" x="0" y="0" width="32" height="32">
<path d="M32 0H0V32H32V0Z" fill="white"/>
</mask>
<g mask="url(#mask0_227_2)">
<path fill-rule="evenodd" clip-rule="evenodd" d="M9 23.947C6.286 23.086 4.346 21.877 3.204 21.027C2.445 20.449 2 19.551 2 18.597C2 16.749 2 13.508 2 11.577C2 10.499 2.568 9.501 3.495 8.951C5.496 7.766 9.559 6 16 6C21.112 6 24.726 7.112 27 8.164V3C27 2.448 27.448 2 28 2C28.552 2 29 2.448 29 3V9.317C29.63 9.889 30 10.707 30 11.577C30 13.508 30 16.749 30 18.597C30 19.551 29.555 20.449 28.796 21.027C27.654 21.877 25.714 23.086 23 23.947V26.069C23.129 26.024 23.266 26 23.405 26H25C25.552 26 26 26.448 26 27V29C26 29.552 25.552 30 25 30H7C6.448 30 6 29.552 6 29V27C6 26.448 6.448 26 7 26H8.595C8.734 26 8.871 26.024 9 26.069V23.947Z" stroke="black" stroke-width="4" stroke-miterlimit="1.5" stroke-linecap="round" stroke-linejoin="round"/>
<path fill-rule="evenodd" clip-rule="evenodd" d="M28 2C28.552 2 29 2.448 29 3C29 5.711 29 13 29 13H27V3C27 2.448 27.448 2 28 2Z" fill="#4D4D4D"/>
<path d="M23 22H9V29.424H23V22Z" fill="#222222"/>
<path fill-rule="evenodd" clip-rule="evenodd" d="M25 30H7C6.448 30 6 29.552 6 29V27C6 26.448 6.448 26 7 26H8.455C8.833 26 9.19 26.173 9.425 26.468C10.212 27.333 12.273 29 16 29C19.727 29 21.788 27.333 22.575 26.468C22.81 26.173 23.167 26 23.545 26H25C25.552 26 26 26.448 26 27V29C26 29.552 25.552 30 25 30Z" fill="#767676"/>
<path fill-rule="evenodd" clip-rule="evenodd" d="M28 8.66498C28.181 8.76298 28.349 8.85898 28.505 8.95098C29.432 9.50098 30 10.499 30 11.577C30 13.508 30 16.749 30 18.597C30 19.551 29.555 20.449 28.796 21.027C26.838 22.486 22.528 25 16 25C9.472 25 5.162 22.486 3.204 21.027C2.445 20.449 2 19.551 2 18.597C2 16.749 2 13.508 2 11.577C2 10.499 2.568 9.50098 3.495 8.95098C3.651 8.85898 3.819 8.76298 4 8.66498H28Z" fill="#8A8A8A"/>
<path fill-rule="evenodd" clip-rule="evenodd" d="M28 8.665V17.687C28 18.619 27.551 19.494 26.795 20.038C25.146 21.223 21.72 23 16 23C10.28 23 6.854 21.223 5.205 20.038C4.449 19.494 4 18.619 4 17.687V8.665C6.143 7.502 10.06 6 16 6C21.94 6 25.857 7.502 28 8.665Z" fill="#333333"/>
<path fill-rule="evenodd" clip-rule="evenodd" d="M11.4 17.95C11.152 17.619 11.219 17.149 11.55 16.9C11.881 16.652 12.351 16.719 12.6 17.05C12.6 17.05 13.574 18.25 16 18.25C18.426 18.25 19.4 17.05 19.4 17.05C19.649 16.719 20.119 16.652 20.45 16.9C20.781 17.149 20.848 17.619 20.6 17.95C20.6 17.95 19.324 19.75 16 19.75C12.676 19.75 11.4 17.95 11.4 17.95ZM9.5 10C9.898 10 10.279 10.158 10.561 10.439C10.842 10.721 11 11.102 11 11.5V13.5C11 13.898 10.842 14.279 10.561 14.561C10.279 14.842 9.898 15 9.5 15C9.102 15 8.721 14.842 8.439 14.561C8.158 14.279 8 13.898 8 13.5V11.5C8 11.102 8.158 10.721 8.439 10.439C8.721 10.158 9.102 10 9.5 10ZM22.5 10C22.898 10 23.279 10.158 23.561 10.439C23.842 10.721 24 11.102 24 11.5V13.5C24 13.898 23.842 14.279 23.561 14.561C23.279 14.842 22.898 15 22.5 15C22.102 15 21.721 14.842 21.439 14.561C21.158 14.279 21 13.898 21 13.5V11.5C21 11.102 21.158 10.721 21.439 10.439C21.721 10.158 22.102 10 22.5 10Z" fill="#58D3D7"/>
<path fill-rule="evenodd" clip-rule="evenodd" d="M13 7.723C13 7.58 13.052 7.441 13.147 7.333C13.474 7.059 14.317 6.5 16 6.5C17.683 6.5 18.526 7.059 18.845 7.341C18.938 7.447 18.989 7.583 18.989 7.723C19 7.78 19 7.844 19 7.91C19 8.236 18.736 8.5 18.41 8.5C17.262 8.5 14.738 8.5 13.59 8.5C13.264 8.5 13 8.236 13 7.91C13 7.844 13 7.78 13 7.723Z" fill="black"/>
</g>
</g>
<defs>
<clipPath id="clip0_227_2">
<rect width="32" height="32" fill="white"/>
</clipPath>
</defs>
</svg>
